<?xml version="1.0" encoding="UTF-8" standalone="no"?>
<svg
   width="496"
   height="496"
   viewBox="0 0 496 496"
   version="1.1"
   id="svg6"
   xmlns="http://www.w3.org/2000/svg"
   xmlns:svg="http://www.w3.org/2000/svg">
  <defs
     id="defs6" />
  <g
     id="surface1">
    <path
       style="fill:#cccccc;fill-opacity:1;fill-rule:evenodd;stroke:none"
       d="m 110.22266,18.371094 c -50.730472,0 -91.851566,41.121094 -91.851566,91.851566 V 248 C 18.371094,374.82031 121.17969,477.62891 248,477.62891 374.82031,477.62891 477.62891,374.82031 477.62891,248 477.62891,121.17969 374.82031,18.371094 248,18.371094 H 194.72656 V 135.94141 h 123.25 c 51.64844,0 93.51953,41.86718 93.51953,93.51953 0,100.53515 -81.5,182.03515 -182.03515,182.03515 -51.65235,0 -93.51953,-41.87109 -93.51953,-93.51953 v -123.25 H 18.371094 V 135.94141 H 135.94141 V 18.371094 Z m 84.5039,299.605466 v -123.25 h 123.25 c 19.1836,0 34.73438,15.55078 34.73438,34.73438 0,68.0664 -55.1836,123.25 -123.25,123.25 -19.1836,0 -34.73438,-15.55078 -34.73438,-34.73438 z m 0,0"
       id="path1" />
    <path
       style="fill:none;stroke:#cccccc;stroke-width:7.9375;stroke-linecap:butt;stroke-linejoin:miter;stroke-miterlimit:4;stroke-opacity:1"
       d="M 39.158525,9.2605 H 35.1899 V 35.1899 H 9.2605 v 24.870575 h 25.9294 v 25.9294 h 24.870575 v -25.9294 h 25.9294 V 35.1899 h -25.9294 V 9.2605 Z m 0,0"
       transform="scale(3.471566)"
       id="path2" />
    <path
       style="fill:#cccccc;fill-opacity:1;fill-rule:nonzero;stroke:none"
       d="m 259.48047,161.35547 c 3.0625,1.76953 3.0625,6.1875 0,7.95312 l -19.28906,11.13672 c -3.0586,1.76953 -6.88672,-0.4414 -6.88672,-3.97656 v -22.27344 c 0,-3.53515 3.82812,-5.74219 6.88672,-3.97656 z m 0,0"
       id="path3" />
    <path
       style="fill:#cccccc;fill-opacity:1;fill-rule:nonzero;stroke:none"
       d="m 169.30859,259.48047 c -1.76562,3.0625 -6.18359,3.0625 -7.95312,0 l -11.13672,-19.28906 c -1.76563,-3.0586 0.44141,-6.88672 3.97656,-6.88672 h 22.27344 c 3.53516,0 5.74609,3.82812 3.97656,6.88672 z m 0,0"
       id="path4" />
    <path
       style="fill:#cccccc;fill-opacity:1;fill-rule:nonzero;stroke:none"
       d="m 161.35547,71.183594 c 1.76953,-3.058594 6.1875,-3.058594 7.95312,0 l 11.13672,19.289062 c 1.76953,3.0625 -0.4414,6.890625 -3.97656,6.890625 h -22.27344 c -3.53515,0 -5.74219,-3.828125 -3.97656,-6.890625 z m 0,0"
       id="path5" />
    <path
       style="fill:#cccccc;fill-opacity:1;fill-rule:nonzero;stroke:none"
       d="m 71.183594,169.30859 c -3.058594,-1.76562 -3.058594,-6.18359 0,-7.95312 l 19.289062,-11.13672 c 3.0625,-1.76563 6.890625,0.44141 6.890625,3.97656 v 22.27344 c 0,3.53516 -3.828125,5.74609 -6.890625,3.97656 z m 0,0"
       id="path6" />
  </g>
</svg>
