<?xml version="1.0" encoding="UTF-8" standalone="no"?>
<svg
   width="540"
   height="540"
   viewBox="0 0 540 540"
   fill="none"
   version="1.1"
   id="svg6"
   sodipodi:docname="bazzite-logo-symbolic.svg"
   inkscape:version="1.3 (0e150ed6c4, 2023-07-21)"
   xmlns:inkscape="http://www.inkscape.org/namespaces/inkscape"
   xmlns:sodipodi="http://sodipodi.sourceforge.net/DTD/sodipodi-0.dtd"
   xmlns="http://www.w3.org/2000/svg"
   xmlns:svg="http://www.w3.org/2000/svg">
  <defs
     id="defs6" />
  <sodipodi:namedview
     id="namedview6"
     pagecolor="#ffffff"
     bordercolor="#000000"
     borderopacity="0.25"
     inkscape:showpageshadow="2"
     inkscape:pageopacity="0.0"
     inkscape:pagecheckerboard="0"
     inkscape:deskcolor="#d1d1d1"
     inkscape:zoom="0.97916667"
     inkscape:cx="301.78723"
     inkscape:cy="-3.5744681"
     inkscape:window-width="1509"
     inkscape:window-height="1288"
     inkscape:window-x="26"
     inkscape:window-y="23"
     inkscape:window-maximized="0"
     inkscape:current-layer="svg6" />
  <path
     fill-rule="evenodd"
     clip-rule="evenodd"
     d="M 120,20 C 64.7715,20 20,64.7715 20,120 v 92 58 C 20,408.071 131.929,520 270,520 408.071,520 520,408.071 520,270 520,131.929 408.071,20 270,20 H 212 V 148 H 346.185 C 402.416,148 448,193.584 448,249.815 448,359.269 359.27,448 249.815,448 193.584,448 148,402.416 148,346.185 V 212 H 20 V 148 H 148 V 20 Z m 92,326.185 V 212 H 346.185 C 367.07,212 384,228.93 384,249.815 384,323.923 323.923,384 249.815,384 228.93,384 212,367.07 212,346.185 Z"
     fill="#ffffff"
     id="path1"
     style="fill:#cccccc;fill-opacity:1" />
  <path
     d="m 148,35 h -15 v 15 83 H 50 35 v 15 64 15 h 15 83 v 83 15 h 15 64 15 v -15 -83 h 83 15 V 212 148 133 H 310 227 V 50 35 h -15 z"
     stroke="#ffffff"
     stroke-width="30"
     id="path2"
     style="stroke:#cccccc;stroke-opacity:1" />
  <path
     d="m 282.5,175.67 c 3.333,1.924 3.333,6.736 0,8.66 l -21,12.124 c -3.333,1.925 -7.5,-0.481 -7.5,-4.33 v -24.248 c 0,-3.849 4.167,-6.255 7.5,-4.33 z"
     fill="#ffffff"
     id="path3"
     style="fill:#cccccc;fill-opacity:1" />
  <path
     d="m 184.33,282.5 c -1.924,3.333 -6.736,3.333 -8.66,0 l -12.124,-21 c -1.925,-3.333 0.481,-7.5 4.33,-7.5 h 24.248 c 3.849,0 6.255,4.167 4.33,7.5 z"
     fill="#ffffff"
     id="path4"
     style="fill:#cccccc;fill-opacity:1" />
  <path
     d="m 175.67,77.5 c 1.924,-3.333 6.736,-3.333 8.66,0 l 12.124,21 c 1.925,3.333 -0.481,7.5 -4.33,7.5 h -24.248 c -3.849,0 -6.255,-4.167 -4.33,-7.5 z"
     fill="#ffffff"
     id="path5"
     style="fill:#cccccc;fill-opacity:1" />
  <path
     d="m 77.5,184.33 c -3.333,-1.924 -3.333,-6.736 0,-8.66 l 21,-12.124 c 3.333,-1.925 7.5,0.481 7.5,4.33 v 24.248 c 0,3.849 -4.167,6.255 -7.5,4.33 z"
     fill="#ffffff"
     id="path6"
     style="fill:#cccccc;fill-opacity:1" />
</svg>
