<?xml version="1.0" encoding="UTF-8" standalone="no"?>
<svg
   width="540"
   height="540"
   viewBox="0 0 540 540"
   fill="none"
   version="1.1"
   id="svg8"
   sodipodi:docname="bazzite-logo.svg"
   inkscape:version="1.3 (0e150ed6c4, 2023-07-21)"
   xmlns:inkscape="http://www.inkscape.org/namespaces/inkscape"
   xmlns:sodipodi="http://sodipodi.sourceforge.net/DTD/sodipodi-0.dtd"
   xmlns="http://www.w3.org/2000/svg"
   xmlns:svg="http://www.w3.org/2000/svg">
  <sodipodi:namedview
     id="namedview8"
     pagecolor="#ffffff"
     bordercolor="#000000"
     borderopacity="0.25"
     inkscape:showpageshadow="2"
     inkscape:pageopacity="0.0"
     inkscape:pagecheckerboard="0"
     inkscape:deskcolor="#d1d1d1"
     inkscape:zoom="0.48958333"
     inkscape:cx="-486.12767"
     inkscape:cy="511.65958"
     inkscape:window-width="1457"
     inkscape:window-height="1212"
     inkscape:window-x="26"
     inkscape:window-y="23"
     inkscape:window-maximized="0"
     inkscape:current-layer="svg8" />
  <path
     d="M 20,120 C 20,64.7715 64.7715,20 120,20 h 150 c 138.071,0 250,111.929 250,250 v 0 c 0,138.071 -111.929,250 -250,250 v 0 C 131.929,520 20,408.071 20,270 Z"
     fill="url(#paint0_linear_1016_105)"
     id="path1"
     style="fill:url(#paint0_linear_1016_105)" />
  <path
     fill-rule="evenodd"
     clip-rule="evenodd"
     d="m 148,20 h 64 V 148 H 346.185 C 402.416,148 448,193.584 448,249.815 448,359.269 359.27,448 249.815,448 193.584,448 148,402.416 148,346.185 V 212 H 20 v -64 h 128 z m 64,192 V 346.185 C 212,367.07 228.93,384 249.815,384 323.923,384 384,323.923 384,249.815 384,228.93 367.07,212 346.185,212 Z"
     fill="#ffffff"
     fill-opacity="0.5"
     id="path2" />
  <path
     d="M 212,80 C 212,63.4315 198.569,50 182,50 h -4 c -16.569,0 -30,13.4315 -30,30 v 68 H 80 c -16.5685,0 -30,13.431 -30,30 v 4 c 0,16.569 13.4315,30 30,30 h 68 v 68 c 0,16.569 13.431,30 30,30 h 4 c 16.569,0 30,-13.431 30,-30 v -68 h 68 c 16.569,0 30,-13.431 30,-30 v -4 c 0,-16.569 -13.431,-30 -30,-30 h -68 z"
     fill="#ffffff"
     fill-opacity="0.7"
     id="path3" />
  <path
     d="m 282.5,175.67 c 3.333,1.924 3.333,6.736 0,8.66 l -21,12.124 c -3.333,1.925 -7.5,-0.481 -7.5,-4.33 v -24.248 c 0,-3.849 4.167,-6.255 7.5,-4.33 z"
     fill="#ffffff"
     id="path4" />
  <path
     d="m 184.33,282.5 c -1.924,3.333 -6.736,3.333 -8.66,0 l -12.124,-21 c -1.925,-3.333 0.481,-7.5 4.33,-7.5 h 24.248 c 3.849,0 6.255,4.167 4.33,7.5 z"
     fill="#ffffff"
     id="path5" />
  <path
     d="m 175.67,77.5 c 1.924,-3.333 6.736,-3.333 8.66,0 l 12.124,21 c 1.925,3.333 -0.481,7.5 -4.33,7.5 h -24.248 c -3.849,0 -6.255,-4.167 -4.33,-7.5 z"
     fill="#ffffff"
     id="path6" />
  <path
     d="m 77.5,184.33 c -3.333,-1.924 -3.333,-6.736 0,-8.66 l 21,-12.124 c 3.333,-1.925 7.5,0.481 7.5,4.33 v 24.248 c 0,3.849 -4.167,6.255 -7.5,4.33 z"
     fill="#ffffff"
     id="path7" />
  <defs
     id="defs8">
    <linearGradient
       id="paint0_linear_1016_105"
       x1="50"
       y1="50"
       x2="550"
       y2="550"
       gradientUnits="userSpaceOnUse"
       gradientTransform="translate(-30,-30)">
      <stop
         offset="0.0684898"
         stop-color="#0047AB"
         id="stop7" />
      <stop
         offset="0.741212"
         stop-color="#8A2BE2"
         id="stop8" />
    </linearGradient>
  </defs>
</svg>
