<?xml version="1.0" encoding="UTF-8" standalone="no"?>
<svg
   viewBox="0 0 172.98744 171.98788"
   version="1.1"
   id="svg3"
   width="495.96399"
   height="493.09821"
   xmlns="http://www.w3.org/2000/svg"
   xmlns:svg="http://www.w3.org/2000/svg">
  <defs
     id="defs3" />
  <g
     id="g1"
     transform="matrix(7.554232,0,0,7.554232,-2.7257723,-1.3722326)">
    <path
       id="Path_4"
       d="m 11.804422,4.9511619 c 1.953226,0 3.801815,0.871976 5.05746,2.336896 l 4.220363,-2.336896 C 17.419947,-0.17605534 10.269745,-1.3619423 5.1425269,2.3352347 4.2007939,3.0328159 3.3288179,3.8699119 2.6312369,4.8116459 l 4.185484,2.406653 c 1.255645,-1.464919 3.069355,-2.267137 4.9877011,-2.267137 z"
       style="fill:#cccccc;fill-opacity:1;stroke-width:0.34879" />
    <path
       id="Path_5"
       d="m 18.187285,9.6598321 c 1.08125,3.5227819 -0.906854,7.2548389 -4.429637,8.3360889 -0.209274,0.0698 -0.383669,0.10464 -0.592943,0.13952 v 4.8133 C 19.44293,22.181401 23.942326,16.496121 23.174987,10.217896 23.07035,9.2064041 22.791318,8.2297911 22.442527,7.3229369 Z"
       style="fill:#cccccc;fill-opacity:1;stroke-width:0.34879" />
    <path
       id="Path_6"
       d="m 5.1425269,11.613057 c 0,-0.69758 0.104637,-1.395161 0.313912,-2.0578619 L 1.2709549,7.1485409 c -2.476411,5.8247991 0.279032,12.5564501 6.10383,14.9979801 0.976613,0.41855 2.022984,0.69758 3.0693551,0.80222 v -4.8133 C 7.3399059,17.507611 5.1425269,14.787051 5.1425269,11.613057 Z"
       style="fill:#cccccc;fill-opacity:1;stroke-width:0.34879" />
  </g>
</svg>
