<?xml version="1.0" encoding="UTF-8" standalone="no"?>
<svg
   viewBox="0 0 173 173"
   version="1.1"
   id="svg3"
   width="496"
   height="496"
   xmlns="http://www.w3.org/2000/svg"
   xmlns:svg="http://www.w3.org/2000/svg">
  <defs
     id="defs3" />
  <path
     fill="#ffffff"
     d="m 86.598904,0 h 0.25 c 28.339996,1.0466667 51.213326,12.56 68.619996,34.54 0.23207,0.294022 0.13411,0.725052 -0.2,0.88 l -36.29,17.85 c -0.29014,0.140512 -0.63837,0.08907 -0.88,-0.13 C 99.858904,36.43 73.208904,36.38 54.968904,53.12 c -0.23557,0.218323 -0.58089,0.269923 -0.87,0.13 l -36.4,-17.88 c -0.29909,-0.150052 -0.386,-0.536303 -0.18,-0.8 17.53333,-22.12 40.56,-33.64333333 69.08,-34.57 z"
     id="path1" />
  <path
     fill="#ffffff"
     d="m 77.528904,172.57 c -61.88,-7.95 -97.77,-74.43 -65.35,-129.83 0.13983,-0.239234 0.46759,-0.287434 0.68,-0.1 l 30.1,27.72 c 0.24195,0.219168 0.32869,0.562164 0.22,0.87 -8.74,25.63 4.77,50.72 29.97,59.5 0.32428,0.10931 0.55751,0.39695 0.6,0.74 l 4.81,40.08 c 0.0788,0.59706 -0.43373,1.10459 -1.03,1.02 z m 52.339996,-101.9 30.31,-27.93 c 0.23257,-0.215053 0.605,-0.156248 0.76,0.12 30.64,54.3 -2.23,123.34 -65.719996,129.62 -0.43688,0.0486 -0.80441,-0.3238 -0.75,-0.76 l 4.96,-40.45 c 0.0306,-0.28466 0.22688,-0.52416 0.5,-0.61 C 125.5489,122.32 138.2489,96.2 129.7989,70.97 c -0.0361,-0.105151 -0.009,-0.221685 0.07,-0.3 z"
     id="path2" />
  <path
     fill="#3e8ddd"
     d="m 86.848904,170.81 q -0.06,0.5 -0.1,1.02 a 0.11,0.11 0 0 1 -0.15,0.09 c -0.32,-0.12 -8.52,-68.88 -9.33,-75.43 -0.6,-4.81 -4.02,-7.51 -7.56,-10.75 q -19.6,-17.95 -39.01,-36.09 -0.37,-0.35 0.08,-0.12 27.63,14.11 48.56,23.94 7.46,3.51 15.11,-0.18 Q 118.3389,61.78 142.0889,49.45 a 0.24,0.24 0 0 1 0.27,0.39 q -21.1,19.05 -41.96,38.63 c -3.309996,3.1 -4.129996,5.42 -4.679996,9.71 q -4.64,36.3 -8.87,72.63 z"
     id="path3" />
</svg>
